<svg width="34" height="35" viewBox="0 0 34 35" fill="none" xmlns="http://www.w3.org/2000/svg">
<circle cx="18" cy="19" r="15.5" fill="#1D2D64" stroke="#233A66"/>
<path d="M13.696 15.168V17.056H17.728V15.168H13.696ZM12.544 10.592V24.048L14.528 23.584V10.592H12.544ZM10.512 23.12L11.056 25.104C13.04 24.656 15.664 24.096 18.096 23.536L17.904 21.648C15.28 22.224 12.416 22.8 10.512 23.12ZM23.952 13.92C22.736 14.736 20.912 15.728 19.232 16.368C19.472 16.784 19.776 17.456 19.888 17.904C21.648 17.264 23.664 16.448 25.296 15.584L23.952 13.92ZM18.656 10.592V22.272C18.656 24.544 19.168 25.2 21.04 25.2C21.408 25.2 22.864 25.2 23.248 25.2C24.976 25.2 25.472 24.16 25.68 21.424C25.136 21.296 24.336 20.944 23.872 20.592C23.776 22.784 23.68 23.344 23.072 23.344C22.768 23.344 21.6 23.344 21.328 23.344C20.72 23.344 20.64 23.216 20.64 22.288V10.592H18.656Z" fill="#F4F4F4"/>
</svg>
