<svg width="32" height="32" viewBox="0 0 32 32" fill="none" xmlns="http://www.w3.org/2000/svg">
<circle cx="16" cy="17" r="13.5" fill="#1D2D64" stroke="#233A66"/>
<path d="M11.696 13.168V15.056H15.728V13.168H11.696ZM10.544 8.592V22.048L12.528 21.584V8.592H10.544ZM8.512 21.12L9.056 23.104C11.04 22.656 13.664 22.096 16.096 21.536L15.904 19.648C13.28 20.224 10.416 20.8 8.512 21.12ZM21.952 11.92C20.736 12.736 18.912 13.728 17.232 14.368C17.472 14.784 17.776 15.456 17.888 15.904C19.648 15.264 21.664 14.448 23.296 13.584L21.952 11.92ZM16.656 8.592V20.272C16.656 22.544 17.168 23.2 19.04 23.2C19.408 23.2 20.864 23.2 21.248 23.2C22.976 23.2 23.472 22.16 23.68 19.424C23.136 19.296 22.336 18.944 21.872 18.592C21.776 20.784 21.68 21.344 21.072 21.344C20.768 21.344 19.6 21.344 19.328 21.344C18.72 21.344 18.64 21.216 18.64 20.288V8.592H16.656Z" fill="#F4F4F4"/>
<circle cx="16" cy="16" r="16" fill="#F3D775"/>
<path d="M11.696 13.168V15.056H15.728V13.168H11.696ZM10.544 8.592V22.048L12.528 21.584V8.592H10.544ZM8.512 21.12L9.056 23.104C11.04 22.656 13.664 22.096 16.096 21.536L15.904 19.648C13.28 20.224 10.416 20.8 8.512 21.12ZM21.952 11.92C20.736 12.736 18.912 13.728 17.232 14.368C17.472 14.784 17.776 15.456 17.888 15.904C19.648 15.264 21.664 14.448 23.296 13.584L21.952 11.92ZM16.656 8.592V20.272C16.656 22.544 17.168 23.2 19.04 23.2C19.408 23.2 20.864 23.2 21.248 23.2C22.976 23.2 23.472 22.16 23.68 19.424C23.136 19.296 22.336 18.944 21.872 18.592C21.776 20.784 21.68 21.344 21.072 21.344C20.768 21.344 19.6 21.344 19.328 21.344C18.72 21.344 18.64 21.216 18.64 20.288V8.592H16.656Z" fill="#233A66"/>
</svg>
