<svg width="24" height="24" viewBox="0 0 24 24" fill="none" xmlns="http://www.w3.org/2000/svg">
<circle cx="12" cy="12" r="12" fill="#F3D775"/>
<path d="M8.592 10.628H11.7V11.516H8.592V10.628ZM8.064 6.992H8.988V16.772L8.064 17V6.992ZM6.456 16.772C7.896 16.496 10.056 16.004 12.072 15.536L12.168 16.4C10.26 16.868 8.232 17.348 6.744 17.696L6.456 16.772ZM16.488 9.548L17.16 10.304C16.056 11.024 14.532 11.732 13.176 12.308C13.116 12.092 12.972 11.78 12.852 11.588C14.16 11.036 15.624 10.232 16.488 9.548ZM12.6 6.992H13.512V16.064C13.512 16.736 13.62 16.856 14.184 16.856C14.448 16.856 15.72 16.856 16.056 16.856C16.62 16.856 16.692 16.412 16.764 14.672C16.992 14.84 17.364 15.008 17.616 15.068C17.496 17.024 17.256 17.708 16.116 17.708C15.864 17.708 14.328 17.708 14.1 17.708C12.912 17.708 12.6 17.36 12.6 16.052V6.992Z" fill="#1D2D64"/>
</svg>
