<svg width="24" height="24" viewBox="0 0 24 24" fill="none" xmlns="http://www.w3.org/2000/svg">
<circle cx="12" cy="12" r="12" fill="#1D2D64"/>
<path d="M2.54 13.96V14.66H11.45V13.96H2.54ZM2.82 8.78V9.47H11.21V8.78H2.82ZM4.86 10.48V11.12H9.15V10.48H4.86ZM4.86 12.21V12.86H9.15V12.21H4.86ZM4.38 7.62V14.27H5.12V7.62H4.38ZM8.85 7.62V14.27H9.61V7.62H8.85ZM7.73 15.36C8.9 15.79 10.09 16.34 10.8 16.76L11.48 16.27C10.7 15.85 9.43 15.3 8.24 14.88L7.73 15.36ZM5.61 14.82C4.9 15.31 3.52 15.9 2.44 16.21C2.6 16.37 2.83 16.63 2.94 16.78C4.02 16.43 5.38 15.85 6.27 15.3L5.61 14.82ZM18.19 7.62V14.57H18.9V7.62H18.19ZM14.71 11.74L14.99 12.4L21.01 10.06L20.72 9.41L14.71 11.74ZM15.97 8.6V15.28C15.97 16.39 16.32 16.67 17.53 16.67C17.8 16.67 19.86 16.67 20.15 16.67C21.26 16.67 21.5 16.22 21.63 14.84C21.41 14.79 21.11 14.66 20.93 14.53C20.85 15.71 20.74 15.99 20.13 15.99C19.69 15.99 17.9 15.99 17.56 15.99C16.85 15.99 16.71 15.86 16.71 15.29V8.6H15.97ZM20.47 9.58C20.47 11.53 20.45 12.84 20.37 13.16C20.3 13.42 20.19 13.46 20.02 13.46C19.89 13.46 19.53 13.46 19.25 13.45C19.34 13.62 19.42 13.93 19.44 14.14C19.74 14.15 20.18 14.14 20.45 14.07C20.76 13.99 20.97 13.8 21.05 13.34C21.15 12.91 21.17 11.47 21.18 9.65L21.21 9.53L20.69 9.31L20.56 9.43L20.38 9.58H20.47ZM14.66 7.64C14.1 9.16 13.17 10.66 12.18 11.63C12.31 11.8 12.52 12.19 12.6 12.36C13.67 11.24 14.7 9.54 15.35 7.86L14.66 7.64ZM13.6 10.22V16.79H14.33V9.5L14.32 9.49L13.6 10.22Z" fill="white"/>
</svg>
